<svg xmlns="http://www.w3.org/2000/svg" width="182" height="57" viewBox="0 0 182 57" fill="none"><path d="M27.5927 20.2693C27.5927 22.2731 25.9692 23.8988 23.9632 23.8988H22.1485V13.5531C22.1485 10.066 24.924 7.16595 28.4111 7.11703C29.4185 7.10368 30.3704 7.32385 31.2199 7.72861C29.0738 8.74716 27.5904 10.9333 27.5904 13.4663V20.2693H27.5927ZM12.5345 28.4333C12.5345 24.9262 15.3766 22.084 18.8838 22.084H13.4418C9.93471 22.084 7.09253 24.9262 7.09253 28.4333C7.09253 31.9405 9.93471 34.7827 13.4418 34.7827H18.8838C15.3766 34.7827 12.5345 31.9405 12.5345 28.4333ZM27.5927 43.5827V36.5974C27.5927 34.5936 25.9692 32.9679 23.9632 32.9679H22.1485V43.4938C22.1485 46.9809 24.924 49.8809 28.4111 49.9298C29.4185 49.9431 30.3704 49.723 31.2199 49.3182C29.0738 48.2997 27.5904 46.1135 27.5904 43.5805L27.5927 43.5827Z" fill="#FE820F"></path><path d="M28.5001 51.7468C23.9988 51.7468 20.336 48.084 20.336 43.5828V36.5974H13.4419C8.94064 36.5974 5.27783 32.9346 5.27783 28.4334C5.27783 23.9322 8.94064 20.2694 13.4419 20.2694H20.336V13.4664C20.336 8.96514 23.9988 5.30234 28.5001 5.30234C33.0013 5.30234 36.6641 8.96514 36.6641 13.4664V20.2694H43.5583C48.0595 20.2694 51.7223 23.9322 51.7223 28.4334C51.7223 29.4364 50.9105 30.2481 49.9076 30.2481C48.9046 30.2481 48.0928 29.4364 48.0928 28.4334C48.0928 25.9315 46.0579 23.8988 43.5583 23.8988H34.8494C33.8464 23.8988 33.0346 23.0871 33.0346 22.0841V13.4664C33.0346 10.9644 30.9998 8.93178 28.5001 8.93178C26.0004 8.93178 23.9655 10.9667 23.9655 13.4664V22.0841C23.9655 23.0871 23.1537 23.8988 22.1508 23.8988H13.4419C10.9399 23.8988 8.90728 25.9337 8.90728 28.4334C8.90728 30.9331 10.9422 32.968 13.4419 32.968H22.1508C23.1537 32.968 23.9655 33.7797 23.9655 34.7827V43.5828C23.9655 46.0847 26.0004 48.1173 28.5001 48.1173C30.9998 48.1173 33.0346 46.0824 33.0346 43.5828V34.7827C33.0346 33.7797 33.8464 32.968 34.8494 32.968C35.8524 32.968 36.6641 33.7797 36.6641 34.7827V43.5828C36.6641 48.084 33.0013 51.7468 28.5001 51.7468Z" fill="white"></path><path d="M43.5582 36.5974H41.9258C40.9228 36.5974 40.1111 35.7856 40.1111 34.7827C40.1111 33.7797 40.9228 32.9679 41.9258 32.9679H43.5582C44.1653 32.9679 44.7747 32.8367 45.3707 32.5765C46.2891 32.1762 47.3589 32.5943 47.7592 33.5128C48.1595 34.4313 47.7414 35.501 46.8229 35.9013C45.7665 36.3639 44.6679 36.5974 43.5559 36.5974H43.5582Z" fill="#FE820F"></path><path d="M76.8179 21.535C76.4441 20.6176 75.9345 19.8022 75.289 19.0548C74.6434 18.3073 73.862 17.7297 72.9786 17.288C72.0953 16.8463 71.11 16.6085 70.0567 16.6085H60V26.2576H63.0578V19.3266H69.8869C70.4644 19.3266 71.0081 19.4625 71.5517 19.7003C72.0613 19.9721 72.5369 20.3118 72.9447 20.7535C73.3524 21.2292 73.6581 21.7388 73.896 22.3504C74.1338 22.9619 74.2697 23.6414 74.2697 24.321C74.2697 25.0005 74.1678 25.646 73.9639 26.2576C73.7261 26.9031 73.4543 27.4127 73.1145 27.8884C72.7408 28.364 72.2991 28.7038 71.7895 28.9756C71.2799 29.2474 70.7023 29.3493 70.0907 29.3493H60V40.7311H63.0578V32.0674H70.2606C71.3138 32.0674 72.2652 31.8635 73.1485 31.4218C74.0319 31.0141 74.7793 30.4365 75.3909 29.6891C76.0024 28.9756 76.4781 28.1602 76.8518 27.2089C77.1916 26.2915 77.3615 25.3402 77.3615 24.321C77.3615 23.3696 77.1576 22.4523 76.8179 21.535Z" fill="white" stroke="white" stroke-miterlimit="2"></path><path d="M96.0838 40.7312V30.1309C96.0838 29.1116 95.9818 28.1263 95.778 27.209C95.5741 26.2917 95.2683 25.5102 94.8606 24.8307C94.419 24.1852 93.8414 23.6755 93.1279 23.2678C92.3804 22.8941 91.4971 22.6903 90.4778 22.6903C89.0508 22.6903 87.7258 23.064 86.5367 23.7775C85.3135 24.5249 84.3622 25.5102 83.6827 26.8013V15.9291H80.6929V40.7312H83.6827V30.029C83.8866 29.3495 84.1584 28.7379 84.5661 28.1603C84.9738 27.6167 85.4155 27.1071 85.9251 26.6994C86.4347 26.2917 86.9783 25.9859 87.5899 25.7481C88.1675 25.5102 88.7451 25.3743 89.3566 25.3743C90.5797 25.3743 91.4971 25.85 92.1426 26.7333C92.7542 27.6167 93.0939 28.9757 93.0939 30.8104V40.7312H96.0838Z" fill="white" stroke="white" stroke-miterlimit="2"></path><path d="M105.286 41.0709C106.645 41.0709 107.936 40.7991 109.159 40.2555C110.382 39.7119 111.367 38.8965 112.183 37.8093L112.251 39.0664C112.318 39.576 112.522 40.0177 112.862 40.3575C113.202 40.6972 113.677 40.8671 114.289 40.8671C114.493 40.8671 114.731 40.8671 114.935 40.8331C115.138 40.8331 115.376 40.7991 115.716 40.7312V38.1491C115.07 38.1491 114.765 37.7753 114.765 37.0618V29.8251C114.765 27.5827 114.085 25.816 112.794 24.5589C111.503 23.3357 109.668 22.6902 107.358 22.6902C105.048 22.6902 102.737 23.4717 100.461 25.0005L101.446 26.9372C103.417 25.5781 105.286 24.8646 107.086 24.8646C108.581 24.8646 109.736 25.3063 110.552 26.1217C111.367 26.9372 111.775 28.0923 111.775 29.5193V30.9463C111.095 30.6745 110.314 30.4706 109.431 30.3007C108.547 30.1648 107.664 30.0629 106.814 30.0629C105.727 30.0629 104.708 30.1988 103.791 30.4706C102.873 30.7424 102.092 31.1161 101.412 31.5918C100.733 32.0674 100.223 32.645 99.8835 33.3245C99.5097 34.004 99.3398 34.7175 99.3398 35.5329C99.3398 36.3484 99.4757 37.0618 99.7815 37.7414C100.087 38.4209 100.495 38.9984 101.039 39.4741C101.582 39.9837 102.194 40.3914 102.941 40.6632C103.655 40.935 104.436 41.0709 105.286 41.0709ZM106.067 38.8286C105.523 38.8286 105.014 38.7606 104.538 38.5568C104.062 38.3869 103.621 38.1491 103.281 37.8093C102.941 37.5035 102.669 37.1298 102.466 36.6881C102.262 36.2804 102.194 35.8047 102.194 35.2951C102.194 34.2759 102.635 33.4604 103.587 32.8149C104.538 32.2033 105.761 31.8636 107.256 31.8636C108.819 31.8636 110.314 32.1694 111.775 32.713V35.3291C111.775 35.8047 111.537 36.2464 111.129 36.6541C110.654 37.3336 109.94 37.8433 109.023 38.251C108.106 38.6587 107.12 38.8286 106.067 38.8286Z" fill="white" stroke="white" stroke-miterlimit="2"></path><path d="M128.956 25.6122V22.8941C128.82 22.8941 128.684 22.8601 128.548 22.8601H127.971C126.815 22.9621 125.762 23.4037 124.777 24.1512C123.758 24.8987 122.976 25.884 122.365 27.1071V22.996H119.579V40.7312H122.568V29.7911C123.044 28.5001 123.826 27.5148 124.981 26.7673C126.136 26.0538 127.461 25.6801 128.956 25.6122Z" fill="white" stroke="white" stroke-miterlimit="2"></path><path d="M158.66 40.7312V30.1308C158.66 29.0776 158.558 28.0923 158.388 27.175C158.184 26.2916 157.913 25.5102 157.505 24.8307C157.097 24.1512 156.52 23.6415 155.84 23.2678C155.161 22.8941 154.311 22.6902 153.292 22.6902C150.37 22.6902 148.094 24.1512 146.531 27.0051C146.327 25.748 145.783 24.7287 144.9 23.9133C144.017 23.0979 142.861 22.6902 141.367 22.6902C139.906 22.6902 138.615 23.0639 137.459 23.7774C136.304 24.4909 135.353 25.5102 134.639 26.8012V22.996H131.921V40.7312H134.911V30.0289C135.319 28.6359 135.998 27.5147 136.984 26.6653C137.935 25.816 139.022 25.3743 140.245 25.3743C141.401 25.3743 142.284 25.816 142.895 26.6653C143.473 27.5487 143.779 28.9077 143.779 30.8104V40.7312H146.769V30.0629C147.176 28.7039 147.856 27.5827 148.807 26.6993C149.759 25.816 150.88 25.3743 152.103 25.3743C153.258 25.3743 154.141 25.816 154.753 26.6993C155.364 27.5827 155.67 28.9757 155.67 30.8104V40.7312H158.66Z" fill="white" stroke="white" stroke-miterlimit="2"></path><path d="M171.92 41.0709C173.245 41.0709 174.468 40.8331 175.555 40.3235C176.642 39.8478 177.594 39.1683 178.409 38.3189C179.19 37.5035 179.802 36.5182 180.244 35.397C180.651 34.3098 180.889 33.1207 180.889 31.8976C180.889 30.6745 180.651 29.4853 180.21 28.3641C179.768 27.2769 179.156 26.2916 178.375 25.4422C177.594 24.6268 176.642 23.9473 175.555 23.4377C174.434 22.962 173.211 22.6902 171.92 22.6902C170.595 22.6902 169.372 22.962 168.284 23.4377C167.197 23.9473 166.246 24.6268 165.464 25.4422C164.683 26.2916 164.071 27.2769 163.63 28.3641C163.188 29.4853 162.984 30.6745 162.984 31.8976C162.984 33.1207 163.188 34.3098 163.63 35.397C164.037 36.5182 164.649 37.5035 165.43 38.3189C166.212 39.1683 167.163 39.8478 168.25 40.3235C169.338 40.8331 170.561 41.0709 171.92 41.0709ZM166.042 31.9315C166.042 31.0142 166.178 30.1648 166.484 29.3494C166.789 28.534 167.197 27.8545 167.741 27.2429C168.284 26.6314 168.896 26.1557 169.609 25.816C170.323 25.4762 171.104 25.2724 171.92 25.2724C172.735 25.2724 173.483 25.4422 174.196 25.782C174.91 26.1217 175.555 26.5974 176.099 27.209C176.642 27.8205 177.05 28.5 177.356 29.3154C177.662 30.1308 177.831 30.9802 177.831 31.8636C177.831 32.8149 177.662 33.6643 177.356 34.4797C177.05 35.2951 176.642 35.9746 176.099 36.5862C175.555 37.1977 174.91 37.6394 174.196 37.9792C173.483 38.3189 172.735 38.4888 171.92 38.4888C171.104 38.4888 170.323 38.3189 169.609 37.9792C168.896 37.6394 168.284 37.1977 167.741 36.5862C167.197 36.0086 166.789 35.3291 166.484 34.5137C166.178 33.7322 166.042 32.8829 166.042 31.9315Z" fill="white" stroke="white" stroke-miterlimit="2"></path></svg>